<svg width="540" height="540" viewBox="0 0 540 540" fill="none" xmlns="http://www.w3.org/2000/svg">
<g clip-path="url(#clip0_78_690)">
<circle cx="270" cy="270" r="270" fill="#06203F"/>
<path d="M270 -1.18021e-05C228.585 -9.99178e-06 187.726 9.52709 150.582 27.8444C113.438 46.1616 81.0062 72.778 55.7946 105.634C30.5829 138.491 13.2676 176.707 5.18796 217.326C-2.89164 257.945 -1.51889 299.878 9.20002 339.881C19.9189 379.885 39.6967 416.886 67.0032 448.023C94.3098 479.161 128.413 503.599 166.675 519.447C204.938 535.296 246.333 542.131 287.659 539.422C328.985 536.713 369.134 524.534 405 503.827L270 270L270 -1.18021e-05Z" fill="#004290"/>
<path d="M110.912 290.352C109.013 290.352 107.349 289.883 105.92 288.944C104.491 288.005 103.371 286.715 102.56 285.072C101.771 283.408 101.376 281.477 101.376 279.28C101.376 276.869 101.813 274.768 102.688 272.976C103.584 271.163 104.821 269.755 106.4 268.752C108 267.749 109.867 267.248 112 267.248C113.173 267.248 114.336 267.44 115.488 267.824C116.64 268.208 117.6 268.741 118.368 269.424L116 272.432C115.381 271.941 114.72 271.579 114.016 271.344C113.312 271.109 112.533 270.992 111.68 270.992C110.379 270.992 109.269 271.323 108.352 271.984C107.435 272.645 106.731 273.595 106.24 274.832C105.771 276.048 105.525 277.541 105.504 279.312C106.251 278.288 107.147 277.499 108.192 276.944C109.237 276.368 110.336 276.08 111.488 276.08C112.96 276.08 114.261 276.379 115.392 276.976C116.523 277.552 117.408 278.363 118.048 279.408C118.688 280.432 119.008 281.605 119.008 282.928C119.008 284.336 118.656 285.605 117.952 286.736C117.248 287.845 116.288 288.731 115.072 289.392C113.856 290.032 112.469 290.352 110.912 290.352ZM110.784 279.376C109.803 279.376 108.875 279.579 108 279.984C107.147 280.389 106.4 280.965 105.76 281.712C105.952 282.736 106.272 283.632 106.72 284.4C107.189 285.147 107.765 285.723 108.448 286.128C109.131 286.533 109.888 286.736 110.72 286.736C111.509 286.736 112.213 286.576 112.832 286.256C113.472 285.936 113.973 285.499 114.336 284.944C114.699 284.368 114.88 283.728 114.88 283.024C114.88 282.299 114.709 281.669 114.368 281.136C114.027 280.581 113.547 280.155 112.928 279.856C112.331 279.536 111.616 279.376 110.784 279.376ZM131.288 290.352C129.346 290.352 127.629 289.872 126.136 288.912C124.664 287.931 123.512 286.576 122.68 284.848C121.869 283.099 121.464 281.083 121.464 278.8C121.464 276.496 121.869 274.48 122.68 272.752C123.512 271.024 124.664 269.68 126.136 268.72C127.629 267.739 129.346 267.248 131.288 267.248C133.25 267.248 134.968 267.739 136.44 268.72C137.933 269.68 139.085 271.024 139.896 272.752C140.728 274.48 141.144 276.496 141.144 278.8C141.144 281.083 140.728 283.099 139.896 284.848C139.085 286.576 137.933 287.931 136.44 288.912C134.968 289.872 133.25 290.352 131.288 290.352ZM131.288 286.544C132.44 286.544 133.432 286.235 134.264 285.616C135.096 284.997 135.736 284.101 136.184 282.928C136.653 281.755 136.888 280.379 136.888 278.8C136.888 277.2 136.653 275.824 136.184 274.672C135.736 273.499 135.096 272.603 134.264 271.984C133.432 271.365 132.44 271.056 131.288 271.056C130.157 271.056 129.176 271.365 128.344 271.984C127.512 272.603 126.861 273.499 126.392 274.672C125.944 275.824 125.72 277.2 125.72 278.8C125.72 280.379 125.944 281.755 126.392 282.928C126.861 284.101 127.512 284.997 128.344 285.616C129.176 286.235 130.157 286.544 131.288 286.544ZM148.074 278.96C146.517 278.96 145.269 278.437 144.33 277.392C143.413 276.325 142.954 274.917 142.954 273.168C142.954 271.461 143.423 270.075 144.362 269.008C145.301 267.941 146.538 267.408 148.074 267.408C149.589 267.408 150.815 267.941 151.754 269.008C152.693 270.075 153.162 271.461 153.162 273.168C153.162 274.917 152.693 276.325 151.754 277.392C150.837 278.437 149.61 278.96 148.074 278.96ZM148.074 276.624C148.842 276.624 149.439 276.325 149.866 275.728C150.314 275.109 150.538 274.256 150.538 273.168C150.538 272.123 150.314 271.291 149.866 270.672C149.418 270.053 148.821 269.744 148.074 269.744C147.306 269.744 146.698 270.053 146.25 270.672C145.823 271.291 145.599 272.123 145.578 273.168C145.599 274.256 145.823 275.109 146.25 275.728C146.677 276.325 147.285 276.624 148.074 276.624ZM146.826 290L159.498 267.6H162.762L150.09 290H146.826ZM161.834 290.16C160.277 290.16 159.029 289.637 158.09 288.592C157.173 287.525 156.714 286.117 156.714 284.368C156.714 282.661 157.183 281.275 158.122 280.208C159.061 279.141 160.298 278.608 161.834 278.608C163.349 278.608 164.575 279.141 165.514 280.208C166.453 281.275 166.922 282.661 166.922 284.368C166.922 286.117 166.453 287.525 165.514 288.592C164.597 289.637 163.37 290.16 161.834 290.16ZM161.834 287.824C162.602 287.824 163.199 287.525 163.626 286.928C164.074 286.309 164.298 285.456 164.298 284.368C164.298 283.323 164.074 282.491 163.626 281.872C163.178 281.253 162.581 280.944 161.834 280.944C161.066 280.944 160.458 281.253 160.01 281.872C159.583 282.491 159.359 283.323 159.338 284.368C159.359 285.456 159.583 286.309 160.01 286.928C160.437 287.525 161.045 287.824 161.834 287.824Z" fill="white"/>
<path d="M374.504 257V251.752H361.864V248.232L373.832 234.6H378.888V248.072H381.64V251.752H378.888V257H374.504ZM366.952 248.072H374.504V239.528L366.952 248.072ZM393.475 257.352C391.534 257.352 389.817 256.872 388.323 255.912C386.851 254.931 385.699 253.576 384.867 251.848C384.057 250.099 383.651 248.083 383.651 245.8C383.651 243.496 384.057 241.48 384.867 239.752C385.699 238.024 386.851 236.68 388.323 235.72C389.817 234.739 391.534 234.248 393.475 234.248C395.438 234.248 397.155 234.739 398.627 235.72C400.121 236.68 401.273 238.024 402.083 239.752C402.915 241.48 403.331 243.496 403.331 245.8C403.331 248.083 402.915 250.099 402.083 251.848C401.273 253.576 400.121 254.931 398.627 255.912C397.155 256.872 395.438 257.352 393.475 257.352ZM393.475 253.544C394.627 253.544 395.619 253.235 396.451 252.616C397.283 251.997 397.923 251.101 398.371 249.928C398.841 248.755 399.075 247.379 399.075 245.8C399.075 244.2 398.841 242.824 398.371 241.672C397.923 240.499 397.283 239.603 396.451 238.984C395.619 238.365 394.627 238.056 393.475 238.056C392.345 238.056 391.363 238.365 390.531 238.984C389.699 239.603 389.049 240.499 388.579 241.672C388.131 242.824 387.907 244.2 387.907 245.8C387.907 247.379 388.131 248.755 388.579 249.928C389.049 251.101 389.699 251.997 390.531 252.616C391.363 253.235 392.345 253.544 393.475 253.544ZM410.262 245.96C408.704 245.96 407.456 245.437 406.518 244.392C405.6 243.325 405.142 241.917 405.142 240.168C405.142 238.461 405.611 237.075 406.549 236.008C407.488 234.941 408.726 234.408 410.262 234.408C411.776 234.408 413.003 234.941 413.942 236.008C414.88 237.075 415.35 238.461 415.35 240.168C415.35 241.917 414.88 243.325 413.942 244.392C413.024 245.437 411.798 245.96 410.262 245.96ZM410.262 243.624C411.03 243.624 411.627 243.325 412.054 242.728C412.502 242.109 412.726 241.256 412.726 240.168C412.726 239.123 412.502 238.291 412.054 237.672C411.606 237.053 411.008 236.744 410.262 236.744C409.494 236.744 408.886 237.053 408.438 237.672C408.011 238.291 407.787 239.123 407.766 240.168C407.787 241.256 408.011 242.109 408.438 242.728C408.864 243.325 409.472 243.624 410.262 243.624ZM409.014 257L421.686 234.6H424.95L412.278 257H409.014ZM424.022 257.16C422.464 257.16 421.216 256.637 420.278 255.592C419.36 254.525 418.902 253.117 418.902 251.368C418.902 249.661 419.371 248.275 420.31 247.208C421.248 246.141 422.486 245.608 424.022 245.608C425.536 245.608 426.763 246.141 427.702 247.208C428.64 248.275 429.11 249.661 429.11 251.368C429.11 253.117 428.64 254.525 427.702 255.592C426.784 256.637 425.558 257.16 424.022 257.16ZM424.022 254.824C424.79 254.824 425.387 254.525 425.814 253.928C426.262 253.309 426.486 252.456 426.486 251.368C426.486 250.323 426.262 249.491 425.814 248.872C425.366 248.253 424.768 247.944 424.022 247.944C423.254 247.944 422.646 248.253 422.198 248.872C421.771 249.491 421.547 250.323 421.526 251.368C421.547 252.456 421.771 253.309 422.198 253.928C422.624 254.525 423.232 254.824 424.022 254.824Z" fill="white"/>
</g>
<defs>
<clipPath id="clip0_78_690">
<rect width="540" height="540" fill="white"/>
</clipPath>
</defs>
</svg>
