<svg width="32" height="32" viewBox="0 0 32 32" fill="none" xmlns="http://www.w3.org/2000/svg">
<path d="M29.6293 0.0121517H2.36132C1.07257 -0.00239204 0.0157284 1.02994 0 2.3187V29.7004C0.0151899 30.9898 1.07195 32.0231 2.36132 32.0096H29.6293C30.9212 32.0256 31.9821 30.9923 32 29.7004V2.31672C31.9816 1.02542 30.9206 -0.0068546 29.6293 0.00996836" fill="#0A66C2"/>
<path d="M22.5242 27.2757H27.2656L27.2675 18.8991C27.2675 14.7868 26.3815 11.6258 21.5759 11.6258C19.7387 11.5576 18.013 12.5054 17.0849 14.0924H17.0212V12.0056H12.4694V27.2753H17.2108V19.7214C17.2108 17.7295 17.5887 15.8003 20.0581 15.8003C22.4925 15.8003 22.5242 18.0797 22.5242 19.8504V27.2757Z" fill="white"/>
<path d="M4.36755 7.16733C4.36783 8.68697 5.59993 9.91866 7.11954 9.91839C7.84928 9.91826 8.54908 9.62824 9.065 9.11213C9.58091 8.59602 9.87067 7.8961 9.87054 7.16634C9.87027 5.6467 8.63816 4.41501 7.11855 4.41528C5.59894 4.41556 4.36728 5.64769 4.36755 7.16733Z" fill="white"/>
<path d="M4.7439 27.2757H9.49024V12.0056H4.7439V27.2757Z" fill="white"/>
</svg>
