<svg width="305" height="120" viewBox="0 0 305 120" fill="none" xmlns="http://www.w3.org/2000/svg">
<mask id="mask0_0_146" style="mask-type:luminance" maskUnits="userSpaceOnUse" x="45" y="29" width="215" height="62">
<path d="M45.5 90.283H259.5V29.7168H45.5V90.283Z" fill="white"/>
</mask>
<g mask="url(#mask0_0_146)">
<path d="M148.533 77.1101H141.896C141.866 77.1101 141.848 77.1042 141.83 77.0833L136.112 70.092L130.387 77.0833C130.375 77.1042 130.355 77.1101 130.325 77.1101H125.01C124.978 77.1101 124.954 77.0952 124.93 77.0595C124.921 77.0387 124.921 77 124.942 76.9762L133.365 66.6201L125.04 56.3621C125.016 56.3264 125.016 56.2966 125.025 56.2639C125.04 56.2461 125.073 56.2163 125.1 56.2163H131.74C131.76 56.2163 131.784 56.2282 131.802 56.258L136.819 62.4818L141.925 56.255C141.94 56.2282 141.964 56.2163 141.988 56.2163H147.4C147.433 56.2163 147.466 56.2461 147.477 56.2639C147.492 56.2966 147.486 56.3323 147.466 56.3621L139.562 65.8614L148.589 76.9762C148.613 77 148.622 77.0387 148.604 77.0595C148.589 77.0952 148.559 77.1101 148.533 77.1101Z" fill="black"/>
<path d="M184.454 59.9002C181.514 59.9002 179.508 61.6852 178.935 64.7882H188.933V64.5889C188.933 62.1047 187.105 59.9002 184.454 59.9002ZM194.09 67.9715C194.075 67.9953 194.045 68.0102 194.019 68.0102H178.828C179.143 71.5505 181.44 73.5676 185.158 73.5676C187.447 73.5676 189.878 72.7851 193.314 70.9555C193.377 70.9198 193.439 70.9733 193.439 71.0388L193.433 75.7156C193.427 75.7542 193.409 75.778 193.383 75.787C190.187 77.1347 186.977 78.054 184.454 78.054C177.912 78.054 173.171 73.282 173.171 66.7101C173.171 60.1382 177.912 55.3662 184.454 55.3662C190.422 55.3662 194.256 59.3914 194.256 64.928C194.256 65.8235 194.102 67.906 194.09 67.9715Z" fill="black"/>
<path d="M224.95 51.9032C223.087 51.9032 221.571 50.4097 221.571 48.5712C221.571 46.679 223.087 45.1469 224.95 45.1469C226.814 45.1469 228.333 46.679 228.333 48.5712C228.333 50.4097 226.814 51.9032 224.95 51.9032ZM222.222 77.1108C222.168 77.1108 222.136 77.0781 222.136 77.0246V56.3033C222.136 56.2617 222.165 56.2289 222.201 56.22H227.688C227.732 56.2289 227.756 56.2617 227.756 56.3033V77.0246C227.756 77.0781 227.72 77.1108 227.676 77.1108H222.222Z" fill="black"/>
<path d="M158.567 73.9901C157.578 73.9901 156.564 73.8502 155.399 73.5378L155.411 60.2453C156.775 59.811 157.961 59.6057 159.135 59.6057C162.939 59.6057 165.493 62.4141 165.493 66.5851C165.493 71.0834 162.773 73.9901 158.567 73.9901ZM160.059 55.3692C158.511 55.3692 156.947 55.6518 155.307 56.2171H149.847C149.802 56.2171 149.77 56.2558 149.77 56.3034V90.2844C151.419 90.0583 153.44 89.4693 155.402 88.071L155.399 77.7356C156.745 77.9261 157.857 78.054 158.93 78.054C166.408 78.054 171.247 73.5676 171.247 66.6208C171.247 59.9984 166.643 55.3692 160.059 55.3692Z" fill="black"/>
<path d="M212.231 72.2694C210.522 73.1679 208.995 73.5933 207.559 73.5933C204.174 73.5933 202.144 71.1984 202.144 67.188C202.144 62.5469 204.735 59.5451 208.742 59.5451C209.848 59.5451 210.924 59.8158 212.231 60.4079V72.2694ZM212.231 45.247V56.094C210.629 55.6359 209.217 55.4246 207.794 55.4246C201.288 55.4246 196.375 60.3335 196.375 66.8548C196.375 73.3464 200.708 78.0529 206.67 78.0529C208.736 78.0529 210.668 77.5352 212.942 76.3631L212.939 78.2344C214.44 77.9488 216.164 77.3478 217.864 76.1429V43.0276C216.193 43.2507 214.214 43.81 212.231 45.247Z" fill="black"/>
<path d="M246.765 72.2282C245.113 73.1832 243.695 73.6414 242.429 73.6414C238.803 73.6414 236.63 71.2554 236.63 67.2301C236.63 62.6575 239.189 59.5902 242.994 59.5902C244.013 59.5902 245.249 59.9799 246.765 60.7832V72.2282ZM252.404 55.9666C252.404 55.8387 252.294 55.7375 252.169 55.7375L247.734 55.7435C247.603 55.7435 247.493 55.8565 247.493 55.9815V56.7371H247.381C245.333 55.8387 243.588 55.4251 241.867 55.4251C235.732 55.4251 230.923 60.5154 230.923 67.0397C230.923 73.6354 235.227 78.0564 241.632 78.0564C243.347 78.0564 245.544 77.9374 247.6 75.5692V78.2349C249.054 77.9255 250.769 77.3066 252.398 76.1345L252.404 55.9666Z" fill="black"/>
<path d="M109.831 71.9255L123.604 71.9195C123.396 73.4606 122.876 75.2635 121.681 77.1021H109.863H107.509H107.352C105.598 77.1021 104.157 75.7425 103.984 74.0229C103.975 73.9961 103.966 73.9723 103.963 73.9485V59.8289V46.7595C103.966 46.7387 103.975 46.7089 103.984 46.6911C104.157 44.9685 105.598 43.6029 107.352 43.6029C107.408 43.6029 107.462 43.6089 107.509 43.6089L123.574 43.6059C123.363 45.144 122.843 46.9945 121.651 48.8271H109.831V56.2291H121.532C121.58 56.2291 121.615 56.2618 121.615 56.3094V61.4443C121.615 61.486 121.58 61.5247 121.532 61.5247H109.831V71.9195V71.9255Z" fill="black"/>
<path d="M92.5893 77.5334C91.228 77.5334 90.3868 76.4683 90.3868 75.1653C90.3868 73.77 91.3498 72.7971 92.5893 72.7971C93.8168 72.7971 94.7768 73.77 94.7768 75.1653C94.7768 76.5635 93.8168 77.5334 92.5893 77.5334ZM92.5893 72.5294C91.1953 72.5294 90.0034 73.5796 90.0034 75.1653C90.0034 76.6647 91.0794 77.7922 92.5893 77.7922C93.9654 77.7922 95.1632 76.748 95.1632 75.1653C95.1632 73.5796 93.9654 72.5294 92.5893 72.5294Z" fill="black"/>
<path d="M91.9712 74.9488V73.9879H92.6191C92.946 73.9879 93.3324 74.0385 93.3324 74.4371C93.3324 74.9102 92.9758 74.9488 92.5686 74.9488H91.9712ZM93.811 74.4996C93.811 73.8719 93.4246 73.6041 92.6756 73.6041H91.4956V76.719H92.0098V75.3862H92.4854L93.2908 76.719H93.8704L92.9966 75.3505C93.4692 75.2939 93.811 75.0649 93.811 74.4996Z" fill="black"/>
<path d="M256.932 59.6662C255.571 59.6662 254.724 58.6011 254.724 57.2981C254.724 55.9028 255.69 54.9299 256.932 54.9299C258.157 54.9299 259.12 55.9028 259.12 57.2981C259.12 58.6964 258.157 59.6662 256.932 59.6662ZM256.932 54.6622C255.538 54.6622 254.346 55.7124 254.346 57.2981C254.346 58.7975 255.419 59.925 256.932 59.925C258.305 59.925 259.5 58.8778 259.5 57.2981C259.5 55.7124 258.305 54.6622 256.932 54.6622Z" fill="black"/>
<path d="M256.312 57.0799V56.122H256.96C257.287 56.122 257.673 56.1696 257.673 56.5682C257.673 57.0442 257.313 57.0799 256.912 57.0799H256.312ZM258.152 56.6307C258.152 56.003 257.765 55.7352 257.016 55.7352H255.836V58.8501H256.344V57.5202H256.826L257.631 58.8501H258.208L257.337 57.4816C257.807 57.428 258.152 57.196 258.152 56.6307Z" fill="black"/>
<path d="M74.8221 48.8016L73.8234 45.9723L65.3526 34.6404L66.8744 34.2625L81.4799 46.9006L90.0755 44.4402C91.0861 44.1784 92.2334 44.1219 93.1072 44.1278C90.4054 38.2967 85.4626 33.5098 78.9356 31.1833C66.0332 26.5809 51.8468 33.3284 47.2577 46.249C45.837 50.2445 45.4981 54.3679 46.0956 58.2891L66.6871 51.1281L74.8221 48.8016Z" fill="black"/>
<path d="M94.0128 46.3613C93.2579 46.8522 92.1492 47.4948 91.0495 47.8488L82.436 50.3092L76.6877 68.7783L75.1957 69.2632L76.4083 55.1585L75.7307 52.2281L67.6581 54.5337L46.3235 59.5616C48.0117 67.7817 53.8254 74.9396 62.2992 77.9623C75.2046 82.5647 89.385 75.8143 93.9742 62.9026C95.9537 57.3362 95.8258 51.5289 94.0128 46.3613Z" fill="black"/>
<path d="M75.7302 52.23L76.4109 55.1575L75.1952 69.2622L76.6873 68.7773L82.4356 50.3111L91.0491 47.8507C92.1488 47.4967 93.2574 46.8482 94.0124 46.3632C93.7478 45.6046 93.4447 44.8578 93.1088 44.129C92.235 44.123 91.0877 44.1825 90.0771 44.4384L81.4815 46.9047L66.873 34.2607L65.3542 34.6415L73.8221 45.9735L74.8237 48.7998L66.6858 51.1322L46.0972 58.2872C46.1626 58.7156 46.2369 59.1411 46.3231 59.5635L67.6606 54.5357L75.7302 52.23Z" fill="black"/>
</g>
</svg>
