<svg width="306" height="120" viewBox="0 0 306 120" fill="none" xmlns="http://www.w3.org/2000/svg">
<g clip-path="url(#clip0_0_140)">
<path d="M258.964 67.4918C258.3 67.4918 257.761 68.0193 257.761 68.6687C257.761 69.3182 258.3 69.8456 258.964 69.8456C259.627 69.8456 260.167 69.3182 260.167 68.6687C260.167 68.0193 259.627 67.4918 258.964 67.4918ZM258.964 69.659C258.404 69.659 257.952 69.2135 257.952 68.6687C257.952 68.1213 258.407 67.6784 258.964 67.6784C259.523 67.6784 259.979 68.1238 259.979 68.6687C259.979 69.2136 259.523 69.659 258.964 69.659ZM259.355 68.4671C259.355 68.2532 259.2 68.1263 258.971 68.1263H258.587V69.1987H258.775V68.8105H258.981L259.18 69.1987H259.383L259.165 68.7708C259.282 68.7185 259.355 68.6139 259.355 68.4671ZM258.964 68.6438H258.778V68.2881H258.964C259.091 68.2881 259.167 68.3502 259.167 68.4647C259.167 68.5816 259.088 68.6438 258.964 68.6438ZM114.021 55.5809V52.7345H109.56V69.6689H114.021V59.5148C114.021 57.676 115.226 56.7728 117.106 56.7728H119.547V52.7345H117.462C115.829 52.7345 114.41 53.568 114.021 55.5809ZM123.726 46.0364C122.2 46.0364 121.03 47.2158 121.03 48.7087C121.03 50.1667 122.2 51.3461 123.726 51.3461C125.252 51.3461 126.421 50.1667 126.421 48.7087C126.421 47.2157 125.252 46.0364 123.726 46.0364ZM121.5 69.669H125.951V52.7345H121.5V69.669ZM147.151 61.2017C147.151 66.0362 143.145 69.9551 138.204 69.9551C136.21 69.9551 134.402 69.3157 132.952 68.2358V74.6403H128.502V52.7345H132.952V54.1676C134.402 53.0878 136.21 52.4483 138.204 52.4483C143.145 52.4483 147.151 56.3672 147.151 61.2017ZM142.672 61.2017C142.672 58.5767 140.495 56.4468 137.812 56.4468C135.129 56.4468 132.952 58.5767 132.952 61.2017C132.952 63.8267 135.129 65.9566 137.812 65.9566C140.495 65.9566 142.672 63.8292 142.672 61.2017ZM224.504 59.7163L221.907 59.0196C220.198 58.5841 219.534 58.0716 219.534 57.1883C219.534 56.3274 220.47 55.7253 221.808 55.7253C223.082 55.7253 224.082 56.5414 224.082 57.5864V57.6834H228.184V57.5864C228.184 54.5135 225.623 52.4483 221.808 52.4483C218.032 52.4483 215.287 54.511 215.287 57.3549C215.287 59.5669 216.785 61.234 219.4 61.9257L221.887 62.59C223.776 63.1026 224.478 63.6699 224.478 64.6876C224.478 65.76 223.464 66.4816 221.953 66.4816C220.379 66.4816 219.318 65.5061 219.318 64.0581V63.961H214.964V64.0581C214.964 67.5316 217.823 69.96 221.917 69.96C225.862 69.96 228.726 67.5888 228.726 64.3243C228.725 62.7219 227.993 60.627 224.504 59.7163ZM162.939 52.7345H167.389V69.6689H162.939V68.2357C161.489 69.3156 159.681 69.955 157.687 69.955C152.746 69.955 148.74 66.0362 148.74 61.2016C148.74 56.3671 152.746 52.4483 157.687 52.4483C159.681 52.4483 161.489 53.0877 162.939 54.1676V52.7345ZM162.939 61.2017C162.939 58.5742 160.762 56.4468 158.079 56.4468C155.396 56.4468 153.219 58.5767 153.219 61.2017C153.219 63.8267 155.396 65.9566 158.079 65.9566C160.764 65.9566 162.939 63.8292 162.939 61.2017ZM183.46 46.7082H187.91V69.6714H183.46V68.2382C182.01 69.3181 180.202 69.9575 178.208 69.9575C173.267 69.9575 169.261 66.0387 169.261 61.2041C169.261 56.3696 173.267 52.4508 178.208 52.4508C180.202 52.4508 182.01 53.0902 183.46 54.1701V46.7082ZM183.46 61.2017C183.46 58.5767 181.283 56.4468 178.6 56.4468C175.917 56.4468 173.74 58.5767 173.74 61.2017C173.74 63.8267 175.914 65.9566 178.6 65.9566C181.283 65.9566 183.46 63.8292 183.46 61.2017ZM208.573 69.669H213.024V52.7345H208.573V69.669ZM210.799 46.0364C209.273 46.0364 208.103 47.2158 208.103 48.7087C208.103 50.1667 209.273 51.3461 210.799 51.3461C212.325 51.3461 213.494 50.1667 213.494 48.7087C213.494 47.2157 212.325 46.0364 210.799 46.0364ZM247.962 61.2017C247.962 66.0362 243.957 69.9551 239.015 69.9551C234.074 69.9551 230.068 66.0362 230.068 61.2017C230.068 56.3671 234.074 52.4483 239.015 52.4483C243.957 52.4483 247.962 56.3672 247.962 61.2017ZM243.875 61.2017C243.875 58.5767 241.698 56.4468 239.015 56.4468C236.332 56.4468 234.155 58.5767 234.155 61.2017C234.155 63.8267 236.33 65.9566 239.015 65.9566C241.698 65.9566 243.875 63.8292 243.875 61.2017ZM111.742 46.7082H94.6699V50.5922H100.99V69.6689H105.425V50.5922H111.745V46.7082H111.742ZM198.08 65.031L194.121 52.7345H189.446L195.385 69.669H200.74L206.714 52.7345H202.04L198.08 65.031ZM254.483 55.5809V52.7345H250.022V69.6689H254.483V59.5148C254.483 57.676 255.688 56.7728 257.567 56.7728H260.009V52.7345H257.924C256.291 52.7345 254.874 53.568 254.483 55.5809Z" fill="black"/>
<path d="M68.9281 82.269C81.4988 82.269 91.6894 72.2988 91.6894 60C91.6894 47.7011 81.4988 37.731 68.9281 37.731C56.3573 37.731 46.1667 47.7011 46.1667 60C46.1667 72.2988 56.3573 82.269 68.9281 82.269Z" fill="black"/>
<path d="M82.9867 55.6556L85.7334 52.732H79.6425C76.5932 50.6942 72.9107 49.5073 68.9281 49.5073C64.9505 49.5073 61.2783 50.6967 58.2341 52.732H52.1279L54.8746 55.6556C53.191 57.1584 52.1356 59.3232 52.1356 61.7267C52.1356 66.2627 55.8944 69.9401 60.5306 69.9401C62.733 69.9401 64.7395 69.1091 66.2375 67.7506L68.9282 70.6169L71.6188 67.7531C73.1168 69.1116 75.1207 69.9401 77.3231 69.9401C81.9593 69.9401 85.7232 66.2627 85.7232 61.7267C85.7257 59.3207 84.6704 57.156 82.9867 55.6556ZM60.5331 67.2853C57.3948 67.2853 54.8517 64.7972 54.8517 61.7267C54.8517 58.6563 57.3949 56.1682 60.5331 56.1682C63.6714 56.1682 66.2145 58.6563 66.2145 61.7267C66.2145 64.7972 63.6714 67.2853 60.5331 67.2853ZM68.9306 61.565C68.9306 57.9074 66.212 54.7673 62.6236 53.4262C64.564 52.6324 66.6927 52.192 68.9281 52.192C71.1635 52.192 73.2947 52.6324 75.2351 53.4262C71.6493 54.7698 68.9306 57.9074 68.9306 61.565ZM77.3257 67.2853C74.1874 67.2853 71.6442 64.7972 71.6442 61.7267C71.6442 58.6563 74.1874 56.1682 77.3257 56.1682C80.464 56.1682 83.0071 58.6563 83.0071 61.7267C83.0071 64.7972 80.4639 67.2853 77.3257 67.2853ZM77.3257 58.8106C75.6802 58.8106 74.3476 60.1144 74.3476 61.7242C74.3476 63.3341 75.6802 64.6379 77.3257 64.6379C78.9711 64.6379 80.3037 63.3341 80.3037 61.7242C80.3037 60.1169 78.9711 58.8106 77.3257 58.8106ZM63.5112 61.7267C63.5112 63.3366 62.1785 64.6404 60.5331 64.6404C58.8877 64.6404 57.5551 63.3366 57.5551 61.7267C57.5551 60.1169 58.8877 58.8131 60.5331 58.8131C62.1785 58.8106 63.5112 60.1169 63.5112 61.7267Z" fill="black"/>
</g>
<defs>
<clipPath id="clip0_0_140">
<rect width="214" height="44.5381" fill="white" transform="translate(46.1667 37.731)"/>
</clipPath>
</defs>
</svg>
