<svg width="305" height="120" viewBox="0 0 305 120" fill="none" xmlns="http://www.w3.org/2000/svg">
<g clip-path="url(#clip0_0_83)">
<mask id="mask0_0_83" style="mask-type:luminance" maskUnits="userSpaceOnUse" x="45" y="41" width="215" height="38">
<path d="M45.9961 41.2331H259.051V78.0876H45.9961V41.2331Z" fill="white"/>
</mask>
<g mask="url(#mask0_0_83)">
<mask id="mask1_0_83" style="mask-type:luminance" maskUnits="userSpaceOnUse" x="45" y="41" width="215" height="38">
<path d="M45.9971 78.0874H259.052V41.2329H45.9971V78.0874Z" fill="white"/>
</mask>
<g mask="url(#mask1_0_83)">
<path d="M129.545 45.2667C129.545 44.3914 129.887 43.5519 130.494 42.9329C131.101 42.314 131.924 41.9662 132.783 41.9662C133.642 41.9662 134.465 42.314 135.072 42.9329C135.679 43.5519 136.021 44.3914 136.021 45.2667C135.989 46.1207 135.634 46.9292 135.031 47.5221C134.427 48.115 133.621 48.4463 132.783 48.4463C131.945 48.4463 131.139 48.115 130.535 47.5221C129.931 46.9292 129.577 46.1207 129.545 45.2667Z" fill="black"/>
<path d="M180.627 67.2786C180.627 65.4468 182.075 63.9666 183.858 63.9666C184.719 63.9666 185.545 64.3153 186.154 64.936C186.763 65.5567 187.105 66.3985 187.105 67.2763C187.105 68.154 186.763 68.9959 186.154 69.6166C185.545 70.2372 184.719 70.5859 183.858 70.5859C182.077 70.5859 180.627 69.1035 180.627 67.2763" fill="black"/>
<path d="M76.4127 65.8465C73.6261 65.8465 71.6872 63.5895 71.6872 60.3626C71.6872 57.1379 73.626 54.8832 76.4149 54.8832C79.2173 54.8832 81.1765 57.1379 81.1765 60.3626C81.1765 63.6401 79.2602 65.8465 76.4127 65.8465ZM76.4127 50.0635C70.5148 50.0635 66.2334 54.396 66.2334 60.3626C66.2334 66.3315 70.5171 70.6616 76.4127 70.6616C82.3354 70.6616 86.6325 66.3315 86.6325 60.3649C86.6325 54.396 82.3332 50.0635 76.4127 50.0635ZM123.276 60.8797C123.07 60.475 122.811 60.1014 122.505 59.7696L122.324 59.5788L122.514 59.395C122.784 59.1031 123.062 58.7583 123.328 58.3584L128.536 50.4703H122.214L118.302 56.6415C118.081 56.9725 117.635 57.1379 116.965 57.1379H116.075V45.4714C116.075 43.1385 114.648 42.8213 113.108 42.8213H110.47L110.477 70.3582H116.077V62.0979H116.602C117.24 62.0979 117.673 62.1737 117.874 62.5276L120.963 68.4713C121.826 70.0847 122.685 70.3582 124.304 70.3582H128.594L125.397 64.9708L123.278 60.8797M150.461 50.0176C147.611 50.0176 145.794 51.3092 144.775 52.401L144.437 52.7503L144.315 52.2746C144.018 51.1047 143.008 50.4634 141.49 50.4634H138.981L138.997 70.3513H144.559V61.1854C144.559 60.289 144.671 59.5122 144.906 58.802C145.524 56.653 147.251 55.3176 149.408 55.3176C151.144 55.3176 151.823 56.2531 151.823 58.6664V67.329C151.823 69.3883 152.758 70.3513 154.781 70.3513H157.428L157.419 57.701C157.419 52.6768 155.013 50.0176 150.461 50.0176ZM132.851 50.4703H130.215L130.233 65.8488V70.3582H133.045L133.144 70.3628L134.456 70.3582H135.759V70.3513H135.768L135.779 53.4927C135.779 51.4586 134.826 50.4726 132.853 50.4726M98.257 65.8465C95.4704 65.8465 93.5292 63.5895 93.5292 60.3626C93.5292 57.1379 95.4704 54.8832 98.2593 54.8832C101.055 54.8832 103.021 57.1379 103.021 60.3626C103.021 63.6401 101.105 65.8465 98.2593 65.8465H98.257ZM98.257 50.0635C92.3546 50.0635 88.0709 54.396 88.0709 60.3626C88.0709 66.3315 92.3547 70.6616 98.2593 70.6616C104.173 70.6616 108.479 66.3315 108.479 60.3649C108.479 54.396 104.173 50.0635 98.2593 50.0635" fill="black"/>
</g>
</g>
<mask id="mask2_0_83" style="mask-type:luminance" maskUnits="userSpaceOnUse" x="45" y="41" width="215" height="38">
<path d="M45.9961 41.2331H259.051V78.0876H45.9961V41.2331Z" fill="white"/>
</mask>
<g mask="url(#mask2_0_83)">
<mask id="mask3_0_83" style="mask-type:luminance" maskUnits="userSpaceOnUse" x="45" y="41" width="215" height="38">
<path d="M45.9966 41.9591H259.006V78.0391H45.9966V41.9591Z" fill="white"/>
</mask>
<g mask="url(#mask3_0_83)">
<mask id="mask4_0_83" style="mask-type:luminance" maskUnits="userSpaceOnUse" x="45" y="41" width="215" height="38">
<path d="M45.9971 78.0872H259.052V41.2326H45.9971V78.0872Z" fill="white"/>
</mask>
<g mask="url(#mask4_0_83)">
<path d="M217.466 65.8463C214.68 65.8463 212.736 63.5893 212.736 60.3623C212.736 57.1377 214.68 54.883 217.466 54.883C220.267 54.883 222.23 57.1377 222.23 60.3623C222.23 63.6398 220.314 65.8463 217.466 65.8463ZM217.466 50.0633C211.564 50.0633 207.283 54.3957 207.283 60.3623C207.283 66.3312 211.564 70.6614 217.466 70.6614C223.382 70.6614 227.686 66.3312 227.686 60.3646C227.686 54.3957 223.38 50.0633 217.466 50.0633Z" fill="black"/>
<path d="M169.145 64.9704C166.103 64.9704 165.021 62.2675 165.021 59.7324C165.021 58.6154 165.299 54.977 168.854 54.977C170.619 54.977 172.971 55.4919 172.971 59.9186C172.971 64.0947 170.89 64.9704 169.145 64.9704ZM175.859 50.417C174.804 50.417 173.992 50.8468 173.584 51.6306L173.431 51.934L173.174 51.7041C172.276 50.9135 170.667 49.9735 168.054 49.9735C162.852 49.9735 159.351 53.9566 159.351 59.8795C159.351 65.8001 162.974 69.9372 168.157 69.9372C169.927 69.9372 171.327 69.5143 172.436 68.6593L172.865 68.3306V68.8822C172.865 71.5392 171.181 73.0055 168.126 73.0055C166.64 73.0055 165.29 72.6378 164.383 72.3022C163.206 71.9391 162.512 72.2402 162.036 73.4468L161.594 74.5592L160.97 76.1865L161.355 76.3956C163.312 77.4529 165.858 78.085 168.157 78.085C172.892 78.085 178.424 75.6142 178.424 68.6593L178.445 50.417H175.859Z" fill="black"/>
</g>
</g>
</g>
<mask id="mask5_0_83" style="mask-type:luminance" maskUnits="userSpaceOnUse" x="45" y="41" width="215" height="38">
<path d="M45.9961 41.2331H259.051V78.0876H45.9961V41.2331Z" fill="white"/>
</mask>
<g mask="url(#mask5_0_83)">
<mask id="mask6_0_83" style="mask-type:luminance" maskUnits="userSpaceOnUse" x="45" y="41" width="215" height="38">
<path d="M45.9971 78.0874H259.052V41.2329H45.9971V78.0874Z" fill="white"/>
</mask>
<g mask="url(#mask6_0_83)">
<path d="M55.7029 65.6186L51.1758 65.614V60.0979C51.1758 58.9165 51.6244 58.3052 52.6142 58.1627H55.7029C57.9056 58.1627 59.3304 59.5785 59.3327 61.8699C59.3304 64.2235 57.9417 65.6163 55.7029 65.6163V65.6186ZM51.1758 50.7343V49.2817C51.1758 48.0107 51.7034 47.4062 52.8599 47.3281H55.1776C57.1639 47.3281 58.3543 48.5393 58.3543 50.5688C58.3543 52.1133 57.5381 53.9175 55.2498 53.9175H51.1758V50.7343ZM61.4836 56.2412L60.6651 55.7723L61.3799 55.1495C62.2118 54.4209 63.6029 52.7821 63.6029 49.9551C63.6029 45.625 60.3112 42.8302 55.2137 42.8302H48.7341C48.005 42.8573 47.3141 43.1693 46.8045 43.7016C46.295 44.2339 46.0059 44.9456 45.9971 45.6893V70.259H55.3286C60.9943 70.259 64.6512 67.1148 64.6512 62.2446C64.6512 59.6221 63.4699 57.3812 61.4836 56.2412Z" fill="black"/>
<path d="M252.53 50.0839C251.381 50.0882 250.249 50.3554 249.216 50.8658C248.182 51.3762 247.275 52.1167 246.56 53.0327L246.158 53.5521L245.843 52.9706C244.81 51.0561 243.038 50.0839 240.574 50.0839C237.988 50.0839 236.254 51.5548 235.449 52.4282L234.922 53.0097L234.719 52.2443C234.426 51.1411 233.463 50.5366 232.007 50.5366H229.669L229.646 70.3487H234.956V61.6034C234.956 60.8357 235.05 60.0795 235.237 59.2866C235.745 57.1721 237.138 54.899 239.48 55.1265C240.923 55.269 241.631 56.4067 241.631 58.604V70.3487H246.979V61.6034C246.979 60.6449 247.067 59.9278 247.279 59.2107C247.707 57.1928 249.164 55.1242 251.423 55.1242C253.06 55.1242 253.664 56.0666 253.664 58.604V67.4527C253.664 69.4523 254.539 70.3487 256.502 70.3487H259L259.005 57.7007C259.005 52.6466 256.822 50.0839 252.53 50.0839ZM204.206 63.4696C204.19 63.4903 201.906 65.945 198.896 65.945C196.155 65.945 193.386 64.2304 193.386 60.4036C193.386 57.0985 195.532 54.7887 198.608 54.7887C199.604 54.7887 200.741 55.1518 200.919 55.7655L200.943 55.8689C201.057 56.2914 201.304 56.6638 201.647 56.9285C201.989 57.1932 202.407 57.3354 202.837 57.333L205.746 57.3376V54.745C205.746 51.325 201.478 50.0839 198.608 50.0839C192.466 50.0839 188.011 54.4416 188.011 60.445C188.011 66.4437 192.417 70.7969 198.495 70.7969C203.766 70.7969 206.634 67.2643 206.661 67.2298L206.814 67.0367L204.51 63.141L204.206 63.4696Z" fill="black"/>
</g>
</g>
</g>
<defs>
<clipPath id="clip0_0_83">
<rect width="214" height="37" fill="white" transform="translate(45.5 41.5)"/>
</clipPath>
</defs>
</svg>
