<svg width="418" height="228" viewBox="0 0 418 228" fill="none" xmlns="http://www.w3.org/2000/svg">
<g filter="url(#filter0_d_1627_1037)">
<rect x="4" width="410" height="220" rx="20" fill="white"/>
<path d="M127.839 136L136.291 85.0909H145.513L138.354 128.269H160.776L159.484 136H127.839ZM183.844 136.746C180.083 136.746 176.951 135.917 174.448 134.26C171.962 132.603 170.214 130.274 169.203 127.275C168.192 124.275 168.01 120.795 168.656 116.835C169.303 112.924 170.595 109.501 172.534 106.568C174.49 103.635 176.951 101.365 179.917 99.7571C182.9 98.133 186.239 97.321 189.935 97.321C193.696 97.321 196.82 98.1579 199.306 99.8317C201.792 101.489 203.54 103.817 204.551 106.817C205.579 109.816 205.769 113.313 205.123 117.307C204.493 121.201 203.192 124.607 201.22 127.523C199.265 130.44 196.804 132.71 193.837 134.335C190.871 135.942 187.54 136.746 183.844 136.746ZM184.59 129.537C186.678 129.537 188.509 128.973 190.084 127.847C191.675 126.703 192.976 125.17 193.987 123.248C195.014 121.309 195.727 119.155 196.124 116.785C196.489 114.498 196.497 112.426 196.149 110.57C195.801 108.698 195.055 107.214 193.912 106.121C192.785 105.01 191.219 104.455 189.214 104.455C187.126 104.455 185.278 105.035 183.67 106.195C182.08 107.339 180.779 108.88 179.768 110.819C178.757 112.741 178.061 114.887 177.68 117.257C177.299 119.544 177.282 121.616 177.63 123.472C177.978 125.328 178.724 126.803 179.867 127.896C181.011 128.99 182.585 129.537 184.59 129.537ZM223.897 151.114C220.649 151.114 217.939 150.674 215.768 149.796C213.597 148.934 211.924 147.774 210.747 146.316C209.57 144.858 208.841 143.242 208.559 141.469L217.011 139.505C217.26 140.251 217.657 140.988 218.204 141.717C218.768 142.463 219.596 143.076 220.69 143.557C221.784 144.054 223.242 144.303 225.065 144.303C227.617 144.303 229.846 143.681 231.752 142.438C233.658 141.195 234.834 139.174 235.282 136.373L236.425 129.139H235.978C235.381 130.067 234.561 131.02 233.517 131.998C232.489 132.976 231.189 133.796 229.614 134.459C228.056 135.122 226.184 135.453 223.996 135.453C221.063 135.453 218.519 134.765 216.365 133.39C214.211 131.998 212.661 129.926 211.716 127.175C210.788 124.408 210.672 120.944 211.368 116.785C212.048 112.592 213.324 109.054 215.197 106.17C217.086 103.27 219.348 101.075 221.983 99.5831C224.618 98.075 227.402 97.321 230.335 97.321C232.572 97.321 234.354 97.7022 235.68 98.4645C237.005 99.2102 238.008 100.113 238.687 101.174C239.367 102.218 239.864 103.204 240.179 104.132H240.651L241.695 97.8182H250.569L244.156 136.621C243.626 139.886 242.408 142.587 240.502 144.725C238.596 146.879 236.202 148.479 233.318 149.523C230.451 150.583 227.311 151.114 223.897 151.114ZM227.576 128.393C229.482 128.393 231.189 127.929 232.697 127.001C234.205 126.073 235.464 124.739 236.475 122.999C237.486 121.259 238.19 119.171 238.588 116.735C238.986 114.332 238.969 112.228 238.538 110.421C238.124 108.615 237.32 107.214 236.127 106.22C234.934 105.209 233.376 104.704 231.454 104.704C229.448 104.704 227.692 105.226 226.184 106.27C224.692 107.314 223.466 108.747 222.505 110.57C221.56 112.377 220.897 114.432 220.516 116.735C220.152 119.072 220.152 121.118 220.516 122.875C220.897 124.615 221.668 125.974 222.828 126.952C224.005 127.913 225.587 128.393 227.576 128.393ZM270.182 136.746C266.421 136.746 263.288 135.917 260.786 134.26C258.3 132.603 256.552 130.274 255.541 127.275C254.53 124.275 254.348 120.795 254.994 116.835C255.64 112.924 256.933 109.501 258.872 106.568C260.827 103.635 263.288 101.365 266.255 99.7571C269.238 98.133 272.577 97.321 276.273 97.321C280.034 97.321 283.158 98.1579 285.644 99.8317C288.13 101.489 289.878 103.817 290.889 106.817C291.916 109.816 292.107 113.313 291.461 117.307C290.831 121.201 289.53 124.607 287.558 127.523C285.603 130.44 283.142 132.71 280.175 134.335C277.209 135.942 273.878 136.746 270.182 136.746ZM270.928 129.537C273.016 129.537 274.847 128.973 276.422 127.847C278.013 126.703 279.314 125.17 280.324 123.248C281.352 121.309 282.064 119.155 282.462 116.785C282.827 114.498 282.835 112.426 282.487 110.57C282.139 108.698 281.393 107.214 280.25 106.121C279.123 105.01 277.557 104.455 275.552 104.455C273.464 104.455 271.616 105.035 270.008 106.195C268.417 107.339 267.117 108.88 266.106 110.819C265.095 112.741 264.399 114.887 264.018 117.257C263.636 119.544 263.62 121.616 263.968 123.472C264.316 125.328 265.062 126.803 266.205 127.896C267.349 128.99 268.923 129.537 270.928 129.537Z" fill="black"/>
</g>
<defs>
<filter id="filter0_d_1627_1037" x="0" y="0" width="418" height="228" filterUnits="userSpaceOnUse" color-interpolation-filters="sRGB">
<feFlood flood-opacity="0" result="BackgroundImageFix"/>
<feColorMatrix in="SourceAlpha" type="matrix" values="0 0 0 0 0 0 0 0 0 0 0 0 0 0 0 0 0 0 127 0" result="hardAlpha"/>
<feOffset dy="4"/>
<feGaussianBlur stdDeviation="2"/>
<feComposite in2="hardAlpha" operator="out"/>
<feColorMatrix type="matrix" values="0 0 0 0 0 0 0 0 0 0 0 0 0 0 0 0 0 0 0.25 0"/>
<feBlend mode="normal" in2="BackgroundImageFix" result="effect1_dropShadow_1627_1037"/>
<feBlend mode="normal" in="SourceGraphic" in2="effect1_dropShadow_1627_1037" result="shape"/>
</filter>
</defs>
</svg>
