<svg width="306" height="120" viewBox="0 0 306 120" fill="none" xmlns="http://www.w3.org/2000/svg">
<path d="M99.7131 51.3936V60.9288H110.722V51.3936H113.692V74.1841H110.722V63.4986H99.7131V74.1841H96.7754V51.3936H99.7131Z" fill="black"/>
<path d="M119.72 66.0355C119.72 69.6193 121.779 72.3238 124.682 72.3238C127.52 72.3238 129.647 69.6532 129.647 65.9667C129.647 63.1937 128.262 59.6783 124.752 59.6783C121.239 59.6783 119.72 62.9237 119.72 66.0355ZM132.685 65.8668C132.685 71.9177 128.498 74.5559 124.549 74.5559C120.126 74.5559 116.714 71.3098 116.714 66.1367C116.714 60.6589 120.294 57.4473 124.818 57.4473C129.512 57.4473 132.685 60.8599 132.685 65.8668Z" fill="black"/>
<path d="M135.64 62.248C135.64 60.5565 135.606 59.1698 135.505 57.8184H138.106L138.239 60.4552H138.34C139.254 58.8988 140.771 57.4458 143.473 57.4458C145.701 57.4458 147.391 58.799 148.1 60.7248H148.167C148.673 59.813 149.316 59.1024 149.991 58.595C150.97 57.8505 152.049 57.4458 153.603 57.4458C155.765 57.4458 158.973 58.8664 158.973 64.5464V74.1851H156.068V64.9187C156.068 61.7745 154.921 59.8808 152.523 59.8808C150.834 59.8808 149.517 61.1323 149.012 62.5853C148.877 62.9915 148.775 63.5331 148.775 64.074V74.1851H145.872V64.3778C145.872 61.7745 144.723 59.8808 142.46 59.8808C140.603 59.8808 139.254 61.3687 138.779 62.8563C138.611 63.296 138.544 63.803 138.544 64.3104V74.1851H135.64V62.248Z" fill="black"/>
<path d="M173.632 64.2156C173.667 62.2844 172.84 59.283 169.43 59.283C166.366 59.283 165.021 62.1118 164.78 64.2156H173.632ZM164.745 66.3893C164.814 70.4935 167.433 72.1836 170.464 72.1836C172.633 72.1836 173.943 71.8052 175.077 71.3213L175.595 73.4939C174.527 73.9779 172.702 74.5627 170.049 74.5627C164.918 74.5627 161.853 71.1497 161.853 66.1133C161.853 61.0779 164.814 57.1114 169.671 57.1114C175.112 57.1114 176.559 61.9057 176.559 64.9742C176.559 65.5958 176.49 66.0783 176.455 66.3893H164.745Z" fill="black"/>
<path d="M190.981 64.5271L188.708 57.8351C188.192 56.3176 187.846 54.9374 187.502 53.5926H187.433C187.09 54.9728 186.71 56.3865 186.264 57.8002L183.989 64.5271H190.981ZM183.369 66.8723L180.958 74.1841H177.859L185.746 50.937H189.363L197.285 74.1841H194.08L191.6 66.8723H183.369Z" fill="black"/>
<path d="M200.273 57.4901L202.476 65.9745C202.96 67.8373 203.406 69.5623 203.717 71.2859H203.821C204.199 69.5973 204.75 67.8034 205.302 65.9745L208.023 57.4901H210.571L213.154 65.8369C213.774 67.8373 214.256 69.5973 214.636 71.2859H214.738C215.014 69.5973 215.462 67.8373 216.011 65.8707L218.388 57.4901H221.385L216.011 74.1851H213.258L210.707 66.2171C210.123 64.3543 209.64 62.6981 209.228 60.7331H209.158C208.745 62.7331 208.229 64.457 207.643 66.2506L204.956 74.1851H202.201L197.173 57.4901H200.273Z" fill="black"/>
<path d="M232.261 65.6649C228.954 65.5961 225.199 66.1835 225.199 69.4249C225.199 71.3914 226.509 72.3216 228.059 72.3216C230.229 72.3216 231.606 70.9428 232.089 69.5273C232.191 69.2174 232.261 68.8725 232.261 68.5637V65.6649ZM235.188 70.1839C235.188 71.6315 235.257 73.0466 235.464 74.1843H232.708L232.468 72.0801H232.365C231.434 73.3918 229.642 74.5645 227.265 74.5645C223.891 74.5645 222.168 72.1839 222.168 69.7702C222.168 65.7334 225.751 63.5272 232.191 63.5611V63.2159C232.191 61.8368 231.813 59.3532 228.404 59.3532C226.854 59.3532 225.234 59.8368 224.062 60.5957L223.375 58.5928C224.752 57.6966 226.75 57.1117 228.851 57.1117C233.947 57.1117 235.188 60.5957 235.188 63.9395V70.1839Z" fill="black"/>
<path d="M240.105 57.4902L243.757 67.3548C244.135 68.4582 244.548 69.7699 244.824 70.7696H244.894C245.202 69.7699 245.547 68.4935 245.961 67.2859L249.268 57.4902H252.471L247.923 69.3897C245.753 75.1152 244.272 77.5902 242.206 79.3841C240.724 80.6943 239.244 81.2115 238.488 81.3491L237.729 78.7963C238.488 78.5552 239.486 78.0727 240.381 77.3138C241.208 76.6572 242.241 75.4846 242.93 73.9336C243.066 73.6226 243.17 73.3811 243.17 73.2085C243.17 73.0362 243.102 72.7963 242.964 72.4161L236.799 57.4902H240.105Z" fill="black"/>
<path d="M64.5736 62.1622C63.6603 63.3554 62.3458 64.1612 60.8445 64.2386C60.7643 64.2441 60.6841 64.2455 60.6038 64.2455C59.0896 64.2455 57.7103 63.4985 56.7103 62.3309C55.7078 61.1597 55.0576 59.559 54.963 57.7755C54.9565 57.6274 54.9525 57.4797 54.9525 57.3344C54.9525 55.5989 55.4926 54.0047 56.4059 52.8101C57.3203 51.6155 58.6348 50.8112 60.136 50.7322C60.2152 50.7297 60.2979 50.7257 60.3757 50.7257C61.891 50.7257 63.2706 51.4728 64.2706 52.6414C65.2742 53.8101 65.9219 55.4119 66.0165 57.1957C66.0241 57.3449 66.0295 57.4912 66.0295 57.6379C66.0295 59.3734 65.4904 60.9662 64.5736 62.1622ZM60.5376 41.1685L51.642 52.4688L51.5927 66.9161L59.8096 65.9536C59.8096 65.9536 61.3678 65.6981 61.4714 67.1731C61.5869 68.8268 60.1205 68.8167 60.1205 68.8167L51.5927 69.9684L51.5747 73.0553L69.8477 76.3577L69.8308 52.4688L60.5376 41.1685Z" fill="black"/>
<path d="M77.7817 54.874L73.5011 55.075L73.4712 60.9187L77.7922 60.5785L77.7817 54.874Z" fill="black"/>
<path d="M73.4847 62.7461L73.4678 68.6089L77.8186 68.1912L77.7877 62.4099L73.4847 62.7461Z" fill="black"/>
<path d="M57.3431 57.6849C57.224 55.3941 58.4377 53.4665 60.0592 53.3522C59.1045 53.9879 58.4791 55.6651 58.5813 57.5991C58.6824 59.5577 59.4957 61.175 60.5306 61.6889L60.532 61.7123C58.8922 61.7966 57.4672 59.9952 57.3431 57.6849ZM63.428 53.3656C62.5939 52.3951 61.5176 51.8362 60.3751 51.8362C60.3143 51.8362 60.2535 51.8373 60.1927 51.8412C59.0581 51.9025 58.0437 52.5003 57.2848 53.4849C56.5324 54.4679 56.0581 55.8287 56.0581 57.3346C56.0581 57.4604 56.0631 57.5876 56.07 57.7173C56.1502 59.2683 56.7188 60.6381 57.5504 61.6074C58.3845 62.5761 59.4622 63.1365 60.6032 63.1365C60.6641 63.1365 60.7259 63.134 60.7871 63.13C61.9217 63.0691 62.9357 62.4698 63.6935 61.4882C64.4474 60.5047 64.9202 59.1426 64.9202 57.6381C64.9202 57.5112 64.9163 57.3851 64.9098 57.2557C64.8306 55.7054 64.2621 54.3332 63.428 53.3656Z" fill="black"/>
<path d="M79.5522 54.7859L79.5537 60.4634L83.1247 60.2374L83.1168 54.6731L79.5522 54.7859Z" fill="black"/>
<path d="M79.5522 68.0161L83.1157 67.6774V62.0337L79.5522 62.2921V68.0161Z" fill="black"/>
<path d="M79.5555 60.4616L79.5541 54.7856L83.1172 54.6738L83.1251 60.2361L79.5555 60.4616ZM83.1161 67.6772L79.5541 68.0159V62.2934L83.1161 62.0336V67.6772ZM73.4692 68.6087L73.4846 62.746L77.7887 62.4098L77.8171 68.1911L73.4692 68.6087ZM51.5733 73.0553L51.5927 69.9669L60.1191 68.8167C60.1191 68.8167 61.588 68.8268 61.4703 67.1741C61.3692 65.6981 59.8096 65.955 59.8096 65.955L51.5927 66.9147L51.6434 52.4677L60.539 41.1685L69.8323 52.4677L69.8463 76.3591L51.5733 73.0553ZM73.5015 55.0749L77.7836 54.8738L77.7941 60.5784L73.4731 60.9186L73.5015 55.0749ZM77.5051 38.651H57.7244L46.0504 52.4508H50.1656V67.1431L47.0285 67.5518C47.0285 67.5518 45.5168 67.8343 45.8939 69.4444C46.2084 70.4534 47.4196 70.4066 47.4196 70.4066L50.1656 70.0632V74.1342L69.7387 77.6794L85.2985 74.1655L85.2712 52.4753H89.8498L77.5051 38.651Z" fill="#B9B9B9"/>
<path d="M63.6947 61.488C62.9383 62.4722 61.9229 63.0689 60.7883 63.1298C60.7271 63.1338 60.6667 63.1363 60.6055 63.1363C59.4634 63.1363 58.3856 62.5759 57.5501 61.6073C56.7185 60.6379 56.1514 59.2682 56.0722 57.7172C56.0643 57.5874 56.0593 57.4602 56.0593 57.3345C56.0593 55.8285 56.5335 54.4678 57.287 53.4847C58.0434 52.5002 59.0603 51.9023 60.1938 51.8411C60.2546 51.8386 60.3155 51.836 60.3763 51.836C61.5188 51.836 62.5965 52.3949 63.4306 53.3654C64.2647 54.333 64.8318 55.7053 64.9095 57.2555C64.9185 57.3849 64.9225 57.511 64.9225 57.6379C64.9225 59.1424 64.4486 60.5046 63.6947 61.488ZM64.2712 52.6414C63.2697 51.4728 61.8916 50.7268 60.3763 50.7268C60.2975 50.7268 60.2172 50.7283 60.1366 50.7322C58.6354 50.8112 57.3209 51.614 56.408 52.8101C55.4932 54.0061 54.9531 55.5989 54.9531 57.3345C54.9531 57.4797 54.9571 57.6274 54.9636 57.7755C55.0582 59.559 55.7084 61.1597 56.7109 62.3309C57.7109 63.4985 59.0902 64.2466 60.6055 64.2466C60.6847 64.2466 60.7649 64.2441 60.8451 64.2387C62.3464 64.1612 63.6609 63.3554 64.5742 62.1622C65.491 60.9662 66.0301 59.3748 66.0301 57.6379C66.0301 57.4927 66.0261 57.3449 66.0171 57.1957C65.9225 55.4108 65.2748 53.8101 64.2712 52.6414Z" fill="black"/>
<path d="M58.5808 57.6003C58.4811 55.6647 59.1054 53.9876 60.0601 53.3519C58.4386 53.4662 57.2249 55.3938 57.344 57.6846C57.4671 59.9934 58.8942 61.7963 60.5329 61.712L60.5315 61.6886C59.498 61.1747 58.6833 59.5574 58.5808 57.6003Z" fill="black"/>
<path d="M256.77 60.0868H257.056C257.389 60.0868 257.659 59.974 257.659 59.7056C257.659 59.4656 257.485 59.3059 257.103 59.3059C256.945 59.3059 256.834 59.3229 256.77 59.3383V60.0868ZM256.755 61.5488H256.152V58.9571C256.389 58.9088 256.722 58.8612 257.151 58.8612C257.644 58.8612 257.866 58.9416 258.055 59.0684C258.2 59.1802 258.31 59.3863 258.31 59.6238C258.31 59.9272 258.088 60.1502 257.77 60.245V60.276C258.024 60.3567 258.168 60.5629 258.248 60.9117C258.326 61.3099 258.374 61.4681 258.437 61.5488H257.786C257.707 61.4526 257.659 61.231 257.58 60.9286C257.533 60.6421 257.374 60.5146 257.041 60.5146H256.755V61.5488ZM257.151 58.1138C256.009 58.1138 255.152 59.0529 255.152 60.1957C255.152 61.3564 256.009 62.2789 257.182 62.2789C258.326 62.2944 259.168 61.3564 259.168 60.1957C259.168 59.0529 258.326 58.1138 257.168 58.1138H257.151ZM257.182 57.5884C258.676 57.5884 259.833 58.7495 259.833 60.1957C259.833 61.6757 258.676 62.8198 257.168 62.8198C255.676 62.8198 254.485 61.6757 254.485 60.1957C254.485 58.7495 255.676 57.5884 257.168 57.5884H257.182Z" fill="black"/>
</svg>
