<svg width="33" height="33" viewBox="0 0 33 33" fill="none" xmlns="http://www.w3.org/2000/svg">
<rect x="0.956055" y="0.0878906" width="32.044" height="32.044" rx="16.022" fill="#DF9226"/>
<path d="M11.2814 21.8065C10.8897 21.8065 10.5545 21.6672 10.2759 21.3885C9.99722 21.1098 9.85765 20.7744 9.85718 20.3823V11.8373C9.85718 11.4456 9.99675 11.1105 10.2759 10.8318C10.555 10.5531 10.8902 10.4136 11.2814 10.4131H22.6748C23.0664 10.4131 23.4018 10.5527 23.6809 10.8318C23.9601 11.1109 24.0994 11.4461 24.0989 11.8373V20.3823C24.0989 20.774 23.9596 21.1094 23.6809 21.3885C23.4023 21.6676 23.0669 21.807 22.6748 21.8065H11.2814ZM16.9781 16.8219L22.6748 13.2614V11.8373L16.9781 15.3977L11.2814 11.8373V13.2614L16.9781 16.8219Z" fill="white"/>
</svg>
