<svg width="33" height="33" viewBox="0 0 33 33" fill="none" xmlns="http://www.w3.org/2000/svg">
<rect x="0.956055" width="32.044" height="32.044" rx="16.022" fill="#DF9226"/>
<path fill-rule="evenodd" clip-rule="evenodd" d="M16.9779 8.10986C13.4823 8.10986 10.6482 11.2771 10.6482 14.8351C10.6482 18.3655 12.6681 22.2029 15.8203 23.6761C16.1826 23.8458 16.5778 23.9337 16.9779 23.9337C17.3779 23.9337 17.7731 23.8458 18.1354 23.6761C21.2876 22.2029 23.3075 18.3655 23.3075 14.8351C23.3075 11.2771 20.4734 8.10986 16.9779 8.10986ZM16.9779 16.022C17.3975 16.022 17.8 15.8552 18.0968 15.5585C18.3936 15.2617 18.5603 14.8592 18.5603 14.4395C18.5603 14.0198 18.3936 13.6174 18.0968 13.3206C17.8 13.0238 17.3975 12.8571 16.9779 12.8571C16.5582 12.8571 16.1557 13.0238 15.8589 13.3206C15.5622 13.6174 15.3954 14.0198 15.3954 14.4395C15.3954 14.8592 15.5622 15.2617 15.8589 15.5585C16.1557 15.8552 16.5582 16.022 16.9779 16.022Z" fill="white"/>
</svg>
