<svg width="33" height="33" viewBox="0 0 33 33" fill="none" xmlns="http://www.w3.org/2000/svg">
<rect x="0.956055" y="0.0439453" width="32.044" height="32.044" rx="16.022" fill="#DF9226"/>
<path d="M19.4403 17.7317L19.1253 18.0453C19.1253 18.0453 18.3755 18.7902 16.3297 16.7562C14.284 14.7222 15.0337 13.9773 15.0337 13.9773L15.2317 13.7793C15.7212 13.2933 15.7676 12.5124 15.3404 11.9419L14.4681 10.7768C13.9392 10.0706 12.918 9.97715 12.3123 10.5795L11.2254 11.6595C10.9256 11.9585 10.7248 12.3448 10.749 12.7741C10.8114 13.8728 11.3084 16.2356 14.0804 18.9924C17.0207 21.9153 19.7795 22.0316 20.9073 21.9264C21.2645 21.8932 21.5747 21.7118 21.8246 21.4625L22.8077 20.485C23.4723 19.8252 23.2854 18.6933 22.4352 18.2315L21.1129 17.5122C20.5549 17.2097 19.8764 17.2983 19.4403 17.7317Z" fill="white"/>
</svg>
