<svg width="44" height="44" viewBox="0 0 44 44" fill="none" xmlns="http://www.w3.org/2000/svg">
<path d="M18.3333 7.17575V0.916748H22V7.17575H18.3333ZM13.5923 10.0834L9.16667 5.65408L6.57434 8.24825L11 12.6739L13.5923 10.0834ZM20.1667 8.81841C19.0678 8.81841 18.0139 9.25494 17.2369 10.032C16.4599 10.809 16.0233 11.8629 16.0233 12.9617V27.7457L11.1155 26.7759C10.4473 26.6445 9.75506 26.7141 9.1263 26.9758C8.49753 27.2375 7.96039 27.6796 7.58267 28.2462L5.841 30.8587L13.7225 41.1089C14.1946 41.7226 14.8013 42.2197 15.4958 42.562C16.1903 42.9043 16.9541 43.0827 17.7283 43.0834H30.7193C32.8955 43.0834 34.826 41.6901 35.5135 39.6257L38.7823 29.8174C39.1478 28.7166 39.1239 27.5236 38.7147 26.4382C38.3056 25.3529 37.5359 24.441 36.5347 23.8554L29.8888 19.9761C29.1154 19.5249 28.236 19.287 27.3405 19.2867H24.31V12.9617C24.31 12.4176 24.2028 11.8789 23.9946 11.3762C23.7864 10.8735 23.4812 10.4167 23.0965 10.032C22.7117 9.64723 22.2549 9.34203 21.7523 9.13381C21.2496 8.92559 20.7108 8.81841 20.1667 8.81841ZM31.1667 5.65591L26.741 10.0816L29.3333 12.6739L33.759 8.25008L31.1667 5.65591Z" fill="black"/>
</svg>
