<svg width="44" height="44" viewBox="0 0 44 44" fill="none" xmlns="http://www.w3.org/2000/svg">
<path d="M22 8.25C19.3172 8.24967 16.7267 9.2298 14.7161 11.006C12.7054 12.7821 11.4132 15.2319 11.0825 17.8942C8.76624 18.0464 6.60005 19.0938 5.04231 20.8148C3.48457 22.5357 2.6575 24.7952 2.7361 27.1152C2.81471 29.4351 3.79283 31.6334 5.46348 33.245C7.13414 34.8566 9.36625 35.7549 11.6875 35.75H32.3125C34.6338 35.7549 36.8659 34.8566 38.5365 33.245C40.2072 31.6334 41.1853 29.4351 41.2639 27.1152C41.3425 24.7952 40.5154 22.5357 38.9577 20.8148C37.4 19.0938 35.2338 18.0464 32.9175 17.8942C32.5868 15.2319 31.2946 12.7821 29.284 11.006C27.2733 9.2298 24.6828 8.24967 22 8.25ZM19.25 16.5H24.75C25.1147 16.5 25.4644 16.6449 25.7223 16.9027C25.9801 17.1606 26.125 17.5103 26.125 17.875C26.125 18.2397 25.9801 18.5894 25.7223 18.8473C25.4644 19.1051 25.1147 19.25 24.75 19.25H19.25C18.8853 19.25 18.5356 19.1051 18.2777 18.8473C18.0199 18.5894 17.875 18.2397 17.875 17.875C17.875 17.5103 18.0199 17.1606 18.2777 16.9027C18.5356 16.6449 18.8853 16.5 19.25 16.5ZM11 26.125C11 25.7603 11.1449 25.4106 11.4027 25.1527C11.6606 24.8949 12.0103 24.75 12.375 24.75H17.875C18.2397 24.75 18.5894 24.8949 18.8473 25.1527C19.1051 25.4106 19.25 25.7603 19.25 26.125C19.25 26.4897 19.1051 26.8394 18.8473 27.0973C18.5894 27.3551 18.2397 27.5 17.875 27.5H12.375C12.0103 27.5 11.6606 27.3551 11.4027 27.0973C11.1449 26.8394 11 26.4897 11 26.125ZM26.125 24.75H31.625C31.9897 24.75 32.3394 24.8949 32.5973 25.1527C32.8551 25.4106 33 25.7603 33 26.125C33 26.4897 32.8551 26.8394 32.5973 27.0973C32.3394 27.3551 31.9897 27.5 31.625 27.5H26.125C25.7603 27.5 25.4106 27.3551 25.1527 27.0973C24.8949 26.8394 24.75 26.4897 24.75 26.125C24.75 25.7603 24.8949 25.4106 25.1527 25.1527C25.4106 24.8949 25.7603 24.75 26.125 24.75Z" fill="black"/>
</svg>
