<svg width="44" height="44" viewBox="0 0 44 44" fill="none" xmlns="http://www.w3.org/2000/svg">
<path d="M36.6667 25.2084C36.6667 24.8437 36.5218 24.494 36.2639 24.2361C36.0061 23.9783 35.6563 23.8334 35.2917 23.8334H29.7917C29.427 23.8334 29.0773 23.9783 28.8194 24.2361C28.5615 24.494 28.4167 24.8437 28.4167 25.2084V37.5834H25.6667V7.79175C25.6667 6.45708 25.663 5.59175 25.5787 4.95741C25.498 4.36158 25.3678 4.17458 25.2633 4.07008C25.1588 3.96558 24.9718 3.83541 24.376 3.75475C23.7398 3.67041 22.8763 3.66675 21.5417 3.66675C20.207 3.66675 19.3417 3.67041 18.7073 3.75475C18.1115 3.83541 17.9245 3.96558 17.82 4.07008C17.7155 4.17458 17.5853 4.36158 17.5047 4.95741C17.4203 5.59358 17.4167 6.45708 17.4167 7.79175V37.5834H14.6667V16.0417C14.6667 15.6771 14.5218 15.3273 14.2639 15.0695C14.0061 14.8116 13.6563 14.6667 13.2917 14.6667H7.79166C7.42699 14.6667 7.07725 14.8116 6.81939 15.0695C6.56153 15.3273 6.41666 15.6771 6.41666 16.0417V37.5834H3.20833C2.84366 37.5834 2.49392 37.7283 2.23606 37.9861C1.97819 38.244 1.83333 38.5937 1.83333 38.9584C1.83333 39.3231 1.97819 39.6728 2.23606 39.9307C2.49392 40.1885 2.84366 40.3334 3.20833 40.3334H39.875C40.2397 40.3334 40.5894 40.1885 40.8473 39.9307C41.1051 39.6728 41.25 39.3231 41.25 38.9584C41.25 38.5937 41.1051 38.244 40.8473 37.9861C40.5894 37.7283 40.2397 37.5834 39.875 37.5834H36.6667V25.2084Z" fill="black"/>
</svg>
