<svg width="64" height="64" viewBox="0 0 64 64" fill="none" xmlns="http://www.w3.org/2000/svg">
<g clip-path="url(#clip0_76_278)">
<path fill-rule="evenodd" clip-rule="evenodd" d="M34.8643 1.26009C34.4917 0.877882 34.0463 0.57413 33.5544 0.366734C33.0626 0.159337 32.5341 0.0524902 32.0003 0.0524902C31.4665 0.0524902 30.9381 0.159337 30.4462 0.366734C29.9544 0.57413 29.509 0.877882 29.1363 1.26009L26.5843 3.88009C26.082 4.39618 25.4497 4.76708 24.7541 4.95365C24.0585 5.14022 23.3255 5.13554 22.6323 4.94009L19.1123 3.94809C18.5985 3.8035 18.061 3.76321 17.5314 3.82958C17.0018 3.89595 16.4908 4.06764 16.0286 4.33454C15.5664 4.60143 15.1623 4.95814 14.84 5.38364C14.5178 5.80914 14.284 6.29483 14.1523 6.81209L13.2483 10.3561C13.0711 11.0538 12.7089 11.6907 12.1999 12.1997C11.6909 12.7086 11.054 13.0709 10.3563 13.2481L6.81233 14.1481C6.29507 14.2797 5.80938 14.5135 5.38388 14.8358C4.95838 15.158 4.60168 15.5621 4.33478 16.0244C4.06788 16.4866 3.89619 16.9976 3.82982 17.5272C3.76345 18.0568 3.80375 18.5943 3.94833 19.1081L4.94033 22.6321C5.13578 23.3252 5.14046 24.0583 4.95389 24.7539C4.76732 25.4495 4.39642 26.0818 3.88033 26.5841L1.26033 29.1361C0.878126 29.5087 0.574375 29.9541 0.366978 30.446C0.159581 30.9379 0.0527344 31.4663 0.0527344 32.0001C0.0527344 32.5339 0.159581 33.0623 0.366978 33.5542C0.574375 34.0461 0.878126 34.4914 1.26033 34.8641L3.88033 37.4201C4.39572 37.922 4.7662 38.5536 4.95275 39.2485C5.1393 39.9433 5.13501 40.6755 4.94033 41.3681L3.94833 44.8881C3.80375 45.4019 3.76345 45.9394 3.82982 46.469C3.89619 46.9986 4.06788 47.5096 4.33478 47.9718C4.60168 48.434 4.95838 48.8382 5.38388 49.1604C5.80938 49.4826 6.29507 49.7165 6.81233 49.8481L10.3563 50.7521C11.054 50.9293 11.6909 51.2915 12.1999 51.8005C12.7089 52.3095 13.0711 52.9464 13.2483 53.6441L14.1483 57.1881C14.2795 57.7057 14.513 58.1918 14.8351 58.6178C15.1571 59.0437 15.5612 59.4009 16.0235 59.6682C16.4857 59.9355 16.9969 60.1075 17.5267 60.1741C18.0565 60.2407 18.5943 60.2006 19.1083 60.0561L22.6323 59.0641C23.3251 58.8681 24.058 58.8628 24.7535 59.0487C25.4491 59.2345 26.0816 59.6047 26.5843 60.1201L29.1363 62.7401C29.509 63.1223 29.9544 63.426 30.4462 63.6334C30.9381 63.8408 31.4665 63.9477 32.0003 63.9477C32.5341 63.9477 33.0626 63.8408 33.5544 63.6334C34.0463 63.426 34.4917 63.1223 34.8643 62.7401L37.4203 60.1201C37.9227 59.6054 38.5545 59.2357 39.2493 59.0498C39.9441 58.864 40.6761 58.8689 41.3683 59.0641L44.8883 60.0561C45.4024 60.2006 45.9402 60.2407 46.47 60.1741C46.9998 60.1075 47.5109 59.9355 47.9732 59.6682C48.4355 59.4009 48.8395 59.0437 49.1616 58.6178C49.4836 58.1918 49.7171 57.7057 49.8483 57.1881L50.7523 53.6441C50.9296 52.9464 51.2918 52.3095 51.8008 51.8005C52.3098 51.2915 52.9467 50.9293 53.6443 50.7521L57.1883 49.8521C57.706 49.7209 58.1921 49.4874 58.618 49.1653C59.044 48.8433 59.4011 48.4392 59.6684 47.977C59.9357 47.5147 60.1077 47.0036 60.1744 46.4738C60.241 45.9439 60.2009 45.4061 60.0563 44.8921L59.0643 41.3721C58.8684 40.6793 58.8631 39.9465 59.0489 39.2509C59.2348 38.5553 59.6049 37.9228 60.1203 37.4201L62.7403 34.8641C63.1225 34.4914 63.4263 34.0461 63.6337 33.5542C63.8411 33.0623 63.9479 32.5339 63.9479 32.0001C63.9479 31.4663 63.8411 30.9379 63.6337 30.446C63.4263 29.9541 63.1225 29.5087 62.7403 29.1361L60.1203 26.5841C59.6049 26.0814 59.2348 25.4489 59.0489 24.7533C58.8631 24.0577 58.8684 23.3249 59.0643 22.6321L60.0563 19.1121C60.2009 18.598 60.241 18.0602 60.1744 17.5304C60.1077 17.0006 59.9357 16.4895 59.6684 16.0272C59.4011 15.5649 59.044 15.1609 58.618 14.8388C58.1921 14.5168 57.706 14.2833 57.1883 14.1521L53.6443 13.2481C52.9467 13.0709 52.3098 12.7086 51.8008 12.1997C51.2918 11.6907 50.9296 11.0538 50.7523 10.3561L49.8523 6.81209C49.7207 6.29483 49.4869 5.80914 49.1646 5.38364C48.8424 4.95814 48.4383 4.60143 47.9761 4.33454C47.5138 4.06764 47.0029 3.89595 46.4733 3.82958C45.9437 3.76321 45.4061 3.8035 44.8923 3.94809L41.3723 4.94009C40.6786 5.13631 39.9448 5.14139 39.2484 4.9548C38.552 4.76821 37.919 4.39688 37.4163 3.88009L34.8643 1.26009ZM47.0923 25.1601C47.6652 24.6074 47.995 23.8497 48.0093 23.0538C48.0235 22.2579 47.721 21.489 47.1683 20.9161C46.6156 20.3432 45.858 20.0134 45.0621 19.9991C44.2662 19.9849 43.4972 20.2874 42.9243 20.8401L26.3883 36.8081L21.1203 31.5481C20.5565 30.9858 19.7924 30.6706 18.9961 30.6717C18.1998 30.6728 17.4366 30.9902 16.8743 31.5541C16.3121 32.1179 15.9968 32.882 15.998 33.6783C15.9991 34.4746 16.3165 35.2378 16.8803 35.8001L24.2363 43.1361C24.7919 43.6911 25.5429 44.0062 26.3282 44.0137C27.1134 44.0212 27.8703 43.7205 28.4363 43.1761L47.0923 25.1601Z" fill="#DF9226"/>
</g>
<defs>
<clipPath id="clip0_76_278">
<rect width="64" height="64" fill="white"/>
</clipPath>
</defs>
</svg>
