<svg width="64" height="64" viewBox="0 0 64 64" fill="none" xmlns="http://www.w3.org/2000/svg">
<path d="M52.6948 9.8125L20.1323 4.0625C19.0877 3.87868 18.0129 4.11726 17.1442 4.72579C16.2755 5.33432 15.684 6.26296 15.4998 7.3075L8.06234 49.5575C7.97137 50.0751 7.98328 50.6055 8.09741 51.1185C8.21153 51.6315 8.42561 52.117 8.72743 52.5472C9.02925 52.9774 9.41289 53.3439 9.85642 53.6258C10.3 53.9077 10.7947 54.0994 11.3123 54.19L43.8748 59.94C44.3926 60.0313 44.9233 60.0197 45.4366 59.9057C45.9499 59.7918 46.4356 59.5778 46.8661 59.2759C47.2966 58.9741 47.6634 58.5903 47.9454 58.1466C48.2274 57.7029 48.4192 57.2079 48.5098 56.69L55.9473 14.44C56.1295 13.3951 55.8893 12.3205 55.2793 11.4527C54.6694 10.585 53.7397 9.99495 52.6948 9.8125ZM33.8748 32.89C33.7932 33.3527 33.5513 33.7718 33.1915 34.074C32.8318 34.3761 32.3771 34.542 31.9073 34.5425C31.79 34.5424 31.6729 34.5324 31.5573 34.5125L21.1823 32.68C20.6893 32.5587 20.2608 32.2544 19.9838 31.8289C19.7068 31.4033 19.6021 30.8883 19.6908 30.3884C19.7795 29.8884 20.0551 29.4409 20.4616 29.1367C20.8681 28.8324 21.3751 28.6942 21.8798 28.75L32.2498 30.5725C32.5088 30.6178 32.7563 30.7137 32.9781 30.8547C33.2 30.9957 33.3919 31.1791 33.5428 31.3944C33.6937 31.6096 33.8007 31.8525 33.8577 32.1091C33.9147 32.3658 33.9205 32.6311 33.8748 32.89ZM45.6248 26.845C45.5433 27.3072 45.3017 27.7261 44.9425 28.0282C44.5833 28.3303 44.1292 28.4964 43.6598 28.4975C43.5416 28.4977 43.4236 28.4868 43.3073 28.465L22.5573 24.8025C22.0349 24.71 21.5705 24.4137 21.2665 23.9789C20.9624 23.544 20.8436 23.0062 20.9361 22.4838C21.0286 21.9613 21.3248 21.4969 21.7597 21.1929C22.1945 20.8889 22.7324 20.77 23.2548 20.8625L44.0048 24.5275C44.264 24.5725 44.5118 24.6682 44.7339 24.8091C44.956 24.95 45.1482 25.1333 45.2994 25.3486C45.4506 25.5639 45.5578 25.8069 45.6149 26.0636C45.6721 26.3204 45.678 26.5859 45.6323 26.845H45.6248ZM47.0123 18.965C46.9307 19.4277 46.6888 19.8468 46.329 20.149C45.9693 20.4511 45.5146 20.617 45.0448 20.6175C44.9275 20.6173 44.8105 20.6073 44.6948 20.5875L23.9448 16.9225C23.6802 16.8836 23.4261 16.7919 23.1976 16.6531C22.969 16.5142 22.7706 16.3309 22.6141 16.114C22.4576 15.8971 22.3462 15.651 22.2865 15.3903C22.2268 15.1296 22.22 14.8596 22.2665 14.5962C22.313 14.3328 22.4118 14.0814 22.5572 13.8569C22.7025 13.6324 22.8914 13.4393 23.1127 13.2891C23.334 13.1389 23.5832 13.0346 23.8455 12.9823C24.1078 12.9301 24.3779 12.931 24.6398 12.985L45.3898 16.6475C45.6492 16.6922 45.8973 16.7877 46.1197 16.9285C46.3421 17.0692 46.5345 17.2525 46.686 17.4678C46.8374 17.6831 46.9449 17.9262 47.0021 18.1831C47.0594 18.4401 47.0654 18.7058 47.0198 18.965H47.0123Z" fill="#DF9226"/>
</svg>
