<svg width="64" height="64" viewBox="0 0 64 64" fill="none" xmlns="http://www.w3.org/2000/svg">
<path d="M10.6663 56C9.19967 56 7.94456 55.4782 6.90101 54.4347C5.85745 53.3911 5.33479 52.1351 5.33301 50.6667V13.3333C5.33301 11.8667 5.85567 10.6116 6.90101 9.568C7.94634 8.52444 9.20145 8.00178 10.6663 8H53.333C54.7997 8 56.0557 8.52267 57.101 9.568C58.1463 10.6133 58.6681 11.8684 58.6663 13.3333V50.6667C58.6663 52.1333 58.1446 53.3893 57.101 54.4347C56.0575 55.48 54.8015 56.0018 53.333 56H10.6663ZM13.333 45.3333H26.6663V40H13.333V45.3333ZM38.7997 40L51.9997 26.8L48.1997 23L38.7997 32.4667L34.9997 28.6667L31.2663 32.4667L38.7997 40ZM13.333 34.6667H26.6663V29.3333H13.333V34.6667ZM13.333 24H26.6663V18.6667H13.333V24Z" fill="#DF9226"/>
</svg>
