<svg width="64" height="64" viewBox="0 0 64 64" fill="none" xmlns="http://www.w3.org/2000/svg">
<path d="M34.6668 37.3333H44.0002C46.2055 37.3333 48.0002 35.5386 48.0002 33.3333V9.33325C48.0002 7.12792 46.2055 5.33325 44.0002 5.33325H9.3335C7.12816 5.33325 5.3335 7.12792 5.3335 9.33325V47.9999L19.5548 37.3333H34.6668ZM10.6668 37.0666L11.0775 37.0239L10.6668 37.3333V37.0666Z" fill="#DF9226"/>
<path d="M54.6668 21.3333H53.3335V37.3359C53.3335 40.2693 50.9522 42.6506 48.0268 42.6666H21.3335V43.9999C21.3335 46.2052 23.1282 47.9999 25.3335 47.9999H44.4455L58.6668 58.6666V25.3333C58.6668 23.1279 56.8722 21.3333 54.6668 21.3333Z" fill="#DF9226"/>
</svg>
