<svg width="20" height="20" viewBox="0 0 20 20" fill="none" xmlns="http://www.w3.org/2000/svg">
<path d="M3.33366 17.5001C2.87533 17.5001 2.4831 17.337 2.15699 17.0109C1.83088 16.6848 1.66755 16.2923 1.66699 15.8334V6.66675C1.66699 6.20841 1.83033 5.81619 2.15699 5.49008C2.48366 5.16397 2.87588 5.00064 3.33366 5.00008H6.66699V3.33341C6.66699 2.87508 6.83033 2.48286 7.15699 2.15675C7.48366 1.83064 7.87588 1.6673 8.33366 1.66675H11.667C12.1253 1.66675 12.5178 1.83008 12.8445 2.15675C13.1712 2.48341 13.3342 2.87564 13.3337 3.33341V5.00008H16.667C17.1253 5.00008 17.5178 5.16341 17.8445 5.49008C18.1712 5.81675 18.3342 6.20897 18.3337 6.66675V15.8334C18.3337 16.2917 18.1706 16.6842 17.8445 17.0109C17.5184 17.3376 17.1259 17.5006 16.667 17.5001H3.33366ZM8.33366 5.00008H11.667V3.33341H8.33366V5.00008Z" fill="#DF9226"/>
</svg>
