<svg width="20" height="20" viewBox="0 0 20 20" fill="none" xmlns="http://www.w3.org/2000/svg">
<path d="M9.99984 9.58341C9.4473 9.58341 8.9174 9.36392 8.5267 8.97322C8.136 8.58252 7.9165 8.05262 7.9165 7.50008C7.9165 6.94755 8.136 6.41764 8.5267 6.02694C8.9174 5.63624 9.4473 5.41675 9.99984 5.41675C10.5524 5.41675 11.0823 5.63624 11.473 6.02694C11.8637 6.41764 12.0832 6.94755 12.0832 7.50008C12.0832 7.77367 12.0293 8.04458 11.9246 8.29734C11.8199 8.5501 11.6664 8.77977 11.473 8.97322C11.2795 9.16668 11.0499 9.32013 10.7971 9.42483C10.5443 9.52953 10.2734 9.58341 9.99984 9.58341ZM9.99984 1.66675C8.45274 1.66675 6.96901 2.28133 5.87505 3.37529C4.78109 4.46925 4.1665 5.95299 4.1665 7.50008C4.1665 11.8751 9.99984 18.3334 9.99984 18.3334C9.99984 18.3334 15.8332 11.8751 15.8332 7.50008C15.8332 5.95299 15.2186 4.46925 14.1246 3.37529C13.0307 2.28133 11.5469 1.66675 9.99984 1.66675Z" fill="#DF9226"/>
</svg>
